<svg xmlns="http://www.w3.org/2000/svg" width="139.87" height="98.83" viewBox="0 0 139.87 98.83">
  <title>add</title>
  <g id="388a8968-feaf-4cb3-a726-2083e3f26127" data-name="Layer 2">
    <g id="bea70f01-7f24-41be-bfe0-3b9ebb67b08b" data-name="Layer 1">
      <g style="opacity: 0.6900000000000001">
        <path d="M76,29.43V55.35H69.07V29.43H45.33v-6H69.07V0H76V23.42H99.67v6Z" transform="translate(-1.52)" style="fill: #002e5b"/>
      </g>
      <g style="opacity: 0.6900000000000001">
        <g>
          <path d="M4.55,91.7a1.4,1.4,0,0,0,1.09.41H6a.16.16,0,0,1,.15.07.25.25,0,0,1,0,.12v1.9a.25.25,0,0,1,0,.12.16.16,0,0,1-.15.07H4.85a3.08,3.08,0,0,1-2.47-1,4,4,0,0,1-.85-2.67V79.83H4.18V90.3A2.07,2.07,0,0,0,4.55,91.7Z" transform="translate(-1.52)" style="fill: #002e5b"/>
          <path d="M10.79,91.4a2.24,2.24,0,0,0,1.84.7.16.16,0,0,1,.15.07.25.25,0,0,1,0,.12v1.9a.25.25,0,0,1,0,.12.16.16,0,0,1-.15.07,3.64,3.64,0,0,1-1.37-.3,3.9,3.9,0,0,1-1.33-.91A3.4,3.4,0,0,1,7.2,94.38H6a.16.16,0,0,1-.15-.07.25.25,0,0,1,0-.12v-1.9a.25.25,0,0,1,0-.12A.16.16,0,0,1,6,92.1H6.4a1.69,1.69,0,0,0,1.3-.6,2.27,2.27,0,0,0,.54-1.59V85h2.66v5.38A4.88,4.88,0,0,1,10.79,91.4ZM8.21,83.34V80.95h2.74v2.39Z" transform="translate(-1.52)" style="fill: #002e5b"/>
          <path d="M24.8,84.49a7,7,0,0,1,1.92,5.33v4.56H12.64a.16.16,0,0,1-.15-.07.25.25,0,0,1,0-.12v-1.9a.25.25,0,0,1,0-.12.16.16,0,0,1,.15-.07h2.2a2.65,2.65,0,0,1-1-2.22A3.59,3.59,0,0,1,14.38,88a3.86,3.86,0,0,1,1.49-1.4A4.45,4.45,0,0,1,18,86.06a4,4,0,0,1,2.28.62,4,4,0,0,1,1.4,1.55,4.18,4.18,0,0,1,.46,1.88v2h1.9V90a5.34,5.34,0,0,0-1.18-3.8A4.7,4.7,0,0,0,19.33,85H18l-1-2.28h2.34A7.6,7.6,0,0,1,24.8,84.49Zm-7.91,4.29a1.86,1.86,0,0,0-.4,1.29,1.93,1.93,0,0,0,.59,1.43,2.51,2.51,0,0,0,1.79.6h1V90.28a2,2,0,0,0-.49-1.39A1.74,1.74,0,0,0,18,88.34,1.44,1.44,0,0,0,16.89,88.78Z" transform="translate(-1.52)" style="fill: #002e5b"/>
          <path d="M49.4,91.7a1.4,1.4,0,0,0,1.09.41h.38a.16.16,0,0,1,.15.07.25.25,0,0,1,0,.12v1.9a.25.25,0,0,1,0,.12.16.16,0,0,1-.15.07H49.69a3.08,3.08,0,0,1-2.6-1.16,5.77,5.77,0,0,1-3.5,1.16H37.93a4.49,4.49,0,0,1-3.53-1.26A4.59,4.59,0,0,1,33.27,90V88h2.66v1.54q0,2.56,2.79,2.57H43.2a6.53,6.53,0,0,0,3.21-.68q0-.46,0-.7V79.45H49V90.3A2.07,2.07,0,0,0,49.4,91.7Zm-6.51-8.11L42.42,85a1.55,1.55,0,0,0-.53-.11.61.61,0,0,0-.47.19.74.74,0,0,0-.18.53.91.91,0,0,0,.15.55h2.19v1.62H38.48l.34-1.62h.93a1.68,1.68,0,0,1-.19-.76A2,2,0,0,1,40.14,84a2.18,2.18,0,0,1,1.57-.55A4.09,4.09,0,0,1,42.89,83.59Z" transform="translate(-1.52)" style="fill: #002e5b"/>
          <path d="M50.87,94.38a.16.16,0,0,1-.15-.07.25.25,0,0,1,0-.12v-1.9a.25.25,0,0,1,0-.12.16.16,0,0,1,.15-.07H54.1V85h2.64v9.43Zm1.24-11V80.95h2.74v2.39Zm3.8,0V80.95h2.74v2.39Z" transform="translate(-1.52)" style="fill: #002e5b"/>
          <path d="M61.26,97.45a4.79,4.79,0,0,1-3,1.38l-1.06-2.38a6,6,0,0,0,1.46-.36,1.57,1.57,0,0,0,.8-.75,3.26,3.26,0,0,0,.27-1.45V85h2.66v8.86A5,5,0,0,1,61.26,97.45Z" transform="translate(-1.52)" style="fill: #002e5b"/>
          <path d="M74.67,92.18a.29.29,0,0,1,0,.11v1.9a.25.25,0,0,1,0,.12.16.16,0,0,1-.15.07h-1.2a4.19,4.19,0,0,1-1.4,3.12,7.44,7.44,0,0,1-3.45,1.33l-1.06-2.38A8,8,0,0,0,69.28,96a2.21,2.21,0,0,0,1.05-.82,2.63,2.63,0,0,0,.36-1.47V87.18A6.24,6.24,0,0,0,69.48,87q-2.32,0-2.32,2.6a2.56,2.56,0,0,0,.6,1.8,2.21,2.21,0,0,0,1.72.66h.84l-1,2.28H69a4.77,4.77,0,0,1-2.37-.59A4.2,4.2,0,0,1,65,92.12a5.11,5.11,0,0,1-.6-2.51A4.85,4.85,0,0,1,65,87.13a4.54,4.54,0,0,1,1.81-1.74,5.64,5.64,0,0,1,2.71-.63,27,27,0,0,1,3.78.38v7h1.16A.15.15,0,0,1,74.67,92.18Z" transform="translate(-1.52)" style="fill: #002e5b"/>
          <path d="M88.11,85.4a4.29,4.29,0,0,1,1.78,1.73,5.07,5.07,0,0,1,.61,2.49,14.28,14.28,0,0,1-1.14,4.77H74.51a.16.16,0,0,1-.15-.07.25.25,0,0,1,0-.12v-1.9a.25.25,0,0,1,0-.12.16.16,0,0,1,.15-.07h1.9V85h2.66v2a11.33,11.33,0,0,1,6.25-2.17A5.81,5.81,0,0,1,88.11,85.4Zm-6.2,2.26a14.67,14.67,0,0,0-2.83,1.56V92.1h8.29a8.85,8.85,0,0,0,.38-2.45,2.44,2.44,0,0,0-.8-1.86,3,3,0,0,0-2.09-.7A7.75,7.75,0,0,0,81.91,87.66Z" transform="translate(-1.52)" style="fill: #002e5b"/>
          <path d="M115,85.15v5.19a4.94,4.94,0,0,1-.11,1.06,2.24,2.24,0,0,0,1.84.7.16.16,0,0,1,.15.07.25.25,0,0,1,0,.12v1.9a.25.25,0,0,1,0,.12.16.16,0,0,1-.15.07,3.64,3.64,0,0,1-1.37-.3,3.9,3.9,0,0,1-1.33-.91,3.4,3.4,0,0,1-2.74,1.22h-9.65a4.49,4.49,0,0,1-3.53-1.26A4.59,4.59,0,0,1,97,90V88h2.66v1.54q0,2.56,2.79,2.57h4.81A3.36,3.36,0,0,1,106,89.31a4.1,4.1,0,0,1,.67-2.26,4.81,4.81,0,0,1,1.86-1.66,5.67,5.67,0,0,1,2.65-.62A26.27,26.27,0,0,1,115,85.15Zm-6.2,4.5a2.35,2.35,0,0,0,.61,1.66,2.5,2.5,0,0,0,1.62.77,2,2,0,0,0,1-.82,2.52,2.52,0,0,0,.35-1.35V87.18a6.23,6.23,0,0,0-1.22-.13Q108.78,87,108.78,89.65Zm1-6.31V80.95h2.74v2.39Z" transform="translate(-1.52)" style="fill: #002e5b"/>
          <path d="M122.82,91.32a2.11,2.11,0,0,0,1,.62,6.09,6.09,0,0,0,1.63.16.16.16,0,0,1,.15.07.25.25,0,0,1,0,.12v1.9a.25.25,0,0,1,0,.12.16.16,0,0,1-.15.07,5.1,5.1,0,0,1-1.92-.33,3.7,3.7,0,0,1-1.37-1.11A3.41,3.41,0,0,1,120.87,94a3.62,3.62,0,0,1-1.66.38H116.7a.16.16,0,0,1-.15-.07.25.25,0,0,1,0-.12v-1.9a.25.25,0,0,1,0-.12.16.16,0,0,1,.15-.07h1.71a1.69,1.69,0,0,0,1.3-.6,2.27,2.27,0,0,0,.54-1.59V84.77h2.66v5.57A5.41,5.41,0,0,1,122.82,91.32Zm-5.15,7.13V96.06h2.74v2.39Zm3.8,0V96.06h2.74v2.39Z" transform="translate(-1.52)" style="fill: #002e5b"/>
          <path d="M139,85.4a4.29,4.29,0,0,1,1.78,1.73,5.07,5.07,0,0,1,.61,2.49,14.28,14.28,0,0,1-1.14,4.77H125.4a.16.16,0,0,1-.15-.07.25.25,0,0,1,0-.12v-1.9a.25.25,0,0,1,0-.12.16.16,0,0,1,.15-.07h1.9V85H130v2a11.33,11.33,0,0,1,6.25-2.17A5.81,5.81,0,0,1,139,85.4Zm-6.2,2.26A14.67,14.67,0,0,0,130,89.22V92.1h8.29a8.85,8.85,0,0,0,.38-2.45,2.44,2.44,0,0,0-.8-1.86,3,3,0,0,0-2.09-.7A7.75,7.75,0,0,0,132.8,87.66Zm1.94-4.31V80.95h2.74v2.39Z" transform="translate(-1.52)" style="fill: #002e5b"/>
        </g>
      </g>
    </g>
  </g>
</svg>
