<svg xmlns="http://www.w3.org/2000/svg" width="317.88" height="317.88" viewBox="0 0 317.88 317.88">
  <title>baghdad</title>
  <g id="99891a41-31d5-40f0-92a0-40157adc39bc" data-name="Layer 2">
    <g id="e3170ce3-12c7-47da-9a35-35f370be965a" data-name="Layer 1">
      <rect width="317.88" height="317.88" style="fill: #1383f7"/>
      <g>
        <path d="M113.39,113.77v23.07H80q-6,0-8.83-3.16a11.47,11.47,0,0,1-2.8-7.9v-4.89H75v3.84q0,6.41,7,6.41H94.07a8.4,8.4,0,0,1-3-7,10.21,10.21,0,0,1,1.69-5.65,12,12,0,0,1,4.65-4.15,14.13,14.13,0,0,1,6.62-1.54A65.4,65.4,0,0,1,113.39,113.77ZM98,125a5.71,5.71,0,0,0,1.85,4.44,6.78,6.78,0,0,0,4.75,1.68h2.18V118.85a15.4,15.4,0,0,0-3-.33Q98,118.52,98,125Zm2.42-15.76v-6h6.83v6Z" style="fill: #fff"/>
        <path d="M132.24,131.33a.75.75,0,0,1,.1.28v4.75a.64.64,0,0,1-.1.31.4.4,0,0,1-.38.17,9.36,9.36,0,0,1-4.79-1.47v0q0,6.17-2.87,9.09a12,12,0,0,1-7.43,3.44L114.1,142a15,15,0,0,0,3.65-.9,3.91,3.91,0,0,0,2-1.87,8.15,8.15,0,0,0,.66-3.63V113.29h6.64V129.1a5.58,5.58,0,0,0,4.79,2A.38.38,0,0,1,132.24,131.33Z" style="fill: #fff"/>
        <path d="M153.36,113.27a12.8,12.8,0,0,1,4.77,3.68,7.68,7.68,0,0,1,1.78,4.79,9.68,9.68,0,0,1-1.33,4.72,15.12,15.12,0,0,1-3.61,4.29,39.68,39.68,0,0,0,6.22.38c.41,0,.62.17.62.52v4.65c0,.35-.21.52-.62.52a46.69,46.69,0,0,1-13.43-1.76,64.78,64.78,0,0,1-15.85,1.76.46.46,0,0,1-.52-.52v-4.65a.46.46,0,0,1,.52-.52,52.09,52.09,0,0,0,8.12-.47,72.9,72.9,0,0,1-6.55-9.49l1.47-6.17a54.52,54.52,0,0,1,6.41-2.35,20.34,20.34,0,0,1,5.6-.78A14.92,14.92,0,0,1,153.36,113.27Zm-13.81,6.86a36.31,36.31,0,0,0,3.37,5.29,33.49,33.49,0,0,0,4.18,4.68,15.34,15.34,0,0,0,4.34-3.13,5.77,5.77,0,0,0,1.83-4,3.86,3.86,0,0,0-1.95-3.39,8.56,8.56,0,0,0-4.75-1.26A17.83,17.83,0,0,0,139.54,120.13Z" style="fill: #fff"/>
        <path d="M161.33,136.84a.4.4,0,0,1-.38-.17.64.64,0,0,1-.09-.31v-4.75a.64.64,0,0,1,.09-.31.4.4,0,0,1,.38-.17h4.75V113.29h6.6v23.54Zm4.6-27.58v-6h6.83v6Z" style="fill: #fff"/>
        <path d="M234.12,130.12a3.5,3.5,0,0,0,2.73,1h.95a.4.4,0,0,1,.38.17.64.64,0,0,1,.09.31v4.75a.64.64,0,0,1-.09.31.4.4,0,0,1-.38.17h-2.94a7.68,7.68,0,0,1-6.17-2.49,9.9,9.9,0,0,1-2.14-6.67V113.29H225q-7,0-7,6.41v17.13H200.91q-6,0-8.83-3.13a11.38,11.38,0,0,1-2.8-7.88V113.29h6.64v11.49q0,6.36,7,6.36h8.45V118.66a11.47,11.47,0,0,1,2.8-7.9q2.8-3.16,8.83-3.16h10.21v19A5.18,5.18,0,0,0,234.12,130.12ZM198,147v-6h6.83v6Zm9.49,0v-6h6.83v6Z" style="fill: #fff"/>
        <path d="M249.71,129.38q1.42,1.76,4.6,1.76a.4.4,0,0,1,.38.17.63.63,0,0,1,.09.31v4.75a.63.63,0,0,1-.09.31.4.4,0,0,1-.38.17,9.08,9.08,0,0,1-3.42-.76,9.74,9.74,0,0,1-3.32-2.28,8.49,8.49,0,0,1-6.83,3h-2.94a.4.4,0,0,1-.38-.17.63.63,0,0,1-.09-.31v-4.75a.63.63,0,0,1,.09-.31.4.4,0,0,1,.38-.17h.95a4.23,4.23,0,0,0,3.25-1.5,5.68,5.68,0,0,0,1.35-4v-25.2H250v26.25A12.24,12.24,0,0,1,249.71,129.38Z" style="fill: #fff"/>
        <path d="M273.56,115a12.36,12.36,0,0,1,4.82,6l2.56,6.55q1.19,3.13,5.41,3.56l-2.56,5.7a8.84,8.84,0,0,1-3.66-.95,11.09,11.09,0,0,1-3.46-2.47,27.34,27.34,0,0,1-7,2.54,33.73,33.73,0,0,1-7.48.88h-7.93a.4.4,0,0,1-.38-.17.63.63,0,0,1-.09-.31v-4.75a.63.63,0,0,1,.09-.31.4.4,0,0,1,.38-.17h7.93a53.12,53.12,0,0,0,6.48-.36,24.25,24.25,0,0,0,5.72-1.45l-2.18-5.27a7.52,7.52,0,0,0-2.89-3.58,8.39,8.39,0,0,0-4.65-1.26,12.43,12.43,0,0,0-5.46,1.19L256.83,115a18.71,18.71,0,0,1,8.88-2.18A13.94,13.94,0,0,1,273.56,115Zm-10.94-5.77v-6h6.83v6Z" style="fill: #fff"/>
        <path d="M147.75,193v-7.64h6.79V193Z" style="fill: #fff"/>
        <path d="M192,188.26a.62.62,0,0,1,.1.31v4.75a.62.62,0,0,1-.1.31.4.4,0,0,1-.38.17h-5.27v8.45H172.15q-6,0-8.83-3.13a11.38,11.38,0,0,1-2.8-7.88V182h6.65v8.21q0,6.41,7,6.41h5.55V157.44h6.65V188.1h5.27A.4.4,0,0,1,192,188.26Z" style="fill: #fff"/>
        <path d="M198.16,188.26a.63.63,0,0,1,.09.31v4.75a.63.63,0,0,1-.09.31.4.4,0,0,1-.38.17h-6.17a.4.4,0,0,1-.38-.17.64.64,0,0,1-.09-.31v-4.75a.64.64,0,0,1,.09-.31.4.4,0,0,1,.38-.17h6.17A.4.4,0,0,1,198.16,188.26Z" style="fill: #fff"/>
        <path d="M204.33,188.26a.63.63,0,0,1,.09.31v4.75a.63.63,0,0,1-.09.31.4.4,0,0,1-.38.17h-6.17a.4.4,0,0,1-.38-.17.64.64,0,0,1-.09-.31v-4.75a.64.64,0,0,1,.09-.31.4.4,0,0,1,.38-.17H204A.4.4,0,0,1,204.33,188.26Z" style="fill: #fff"/>
        <path d="M219.24,186.15a5.27,5.27,0,0,0,2.37,1.54,15.14,15.14,0,0,0,4.08.4.4.4,0,0,1,.38.17.63.63,0,0,1,.09.31v4.75a.63.63,0,0,1-.09.31.4.4,0,0,1-.38.17,12.73,12.73,0,0,1-4.79-.83,9.24,9.24,0,0,1-3.42-2.78,8.56,8.56,0,0,1-3.11,2.66,9.08,9.08,0,0,1-4.15.95H204a.4.4,0,0,1-.38-.17.64.64,0,0,1-.09-.31v-4.75a.64.64,0,0,1,.09-.31.4.4,0,0,1,.38-.17h4.27a4.23,4.23,0,0,0,3.25-1.5,5.68,5.68,0,0,0,1.35-4V169.78h6.65v13.91A13.54,13.54,0,0,1,219.24,186.15ZM206.37,204v-6h6.84v6Zm9.49,0v-6h6.83v6Z" style="fill: #fff"/>
        <path d="M244.75,171.34a11.31,11.31,0,0,1,4.53,4.34,12.1,12.1,0,0,1,1.61,6.19,13,13,0,0,1-.85,4.84,6,6,0,0,0,4.27,1.38.4.4,0,0,1,.38.17.63.63,0,0,1,.09.31v4.75a.63.63,0,0,1-.09.31.4.4,0,0,1-.38.17,9.11,9.11,0,0,1-3.49-.78,9.69,9.69,0,0,1-3.35-2.35,11.29,11.29,0,0,1-8.12,3.13H225.69a.4.4,0,0,1-.38-.17.63.63,0,0,1-.09-.31v-4.75a.63.63,0,0,1,.09-.31.4.4,0,0,1,.38-.17h2.85V170.73a67.18,67.18,0,0,1,9.45-.95A14.09,14.09,0,0,1,244.75,171.34Zm-9.56,4.46V188.1h3a5.52,5.52,0,0,0,4.29-1.64A6.4,6.4,0,0,0,244,182q0-6.5-5.79-6.5A14.6,14.6,0,0,0,235.18,175.81Z" style="fill: #fff"/>
        <path d="M273.56,172a12.36,12.36,0,0,1,4.82,6l2.56,6.55q1.19,3.13,5.41,3.56l-2.56,5.7a8.84,8.84,0,0,1-3.66-.95,11.09,11.09,0,0,1-3.46-2.47,27.34,27.34,0,0,1-7,2.54,33.73,33.73,0,0,1-7.48.88h-7.93a.4.4,0,0,1-.38-.17.63.63,0,0,1-.09-.31v-4.75a.63.63,0,0,1,.09-.31.4.4,0,0,1,.38-.17h7.93a53.12,53.12,0,0,0,6.48-.36,24.25,24.25,0,0,0,5.72-1.45L272.25,181a7.52,7.52,0,0,0-2.89-3.58,8.39,8.39,0,0,0-4.65-1.26,12.43,12.43,0,0,0-5.46,1.19L256.83,172a18.71,18.71,0,0,1,8.88-2.18A13.94,13.94,0,0,1,273.56,172Zm-10.75,32v-6h6.83v6Z" style="fill: #fff"/>
      </g>
      <g>
        <path d="M36.12,283.68V271.43h4.42c2.88,0,4,1.24,4,3.08a2.39,2.39,0,0,1-2,2.64v0a2.81,2.81,0,0,1,2.52,3c0,2.55-1.67,3.45-4,3.45Zm1.16-6.84h2.93c2.42,0,3.2-.85,3.2-2.33s-.92-2.09-3.45-2.09H37.28Zm0,5.85h2.94c2.55,0,3.74-.34,3.74-2.47s-1.43-2.4-3.61-2.4H37.28Z" style="fill: #fff"/>
        <path d="M51.37,278.54a5.12,5.12,0,0,0,1.34-.29c.34-.15.37-.61.37-.92,0-1-.61-1.79-2.19-1.79-1.41,0-2.38.46-2.57,2h-1c.15-2.08,1.7-2.91,3.62-2.91s3.2.7,3.2,2.74v4.8c0,.8.2,1,1.07.68v.8a2.84,2.84,0,0,1-.8.17,2,2,0,0,1-.46-.05c-.68-.1-.8-.7-.82-1.31a4.33,4.33,0,0,1-3.28,1.46c-1.55,0-2.94-.83-2.94-2.54,0-1.48,1-2.38,3.08-2.65Zm1.72.51a8.38,8.38,0,0,1-2.64.49c-1.55.12-2.48.68-2.48,1.87S48.9,283,49.87,283c1.62,0,3.22-.78,3.22-2.57Z" style="fill: #fff"/>
        <path d="M63.58,274.87h1v8c0,2.37-.78,4.46-4.13,4.46-2.59,0-3.66-1.48-3.73-2.53h1.09c.31,1.33,1.43,1.62,2.64,1.62,2.79,0,3.16-2.08,3.11-4.1a3.66,3.66,0,0,1-3.15,1.65c-2.69,0-3.93-2.2-3.93-4.66s1.14-4.63,4-4.63a3.55,3.55,0,0,1,3.06,1.79h0Zm-3,.68c-1.72,0-3,1.24-3,3.45s.9,4,3,4c1.85,0,3-1.7,3-3.69S62.53,275.55,60.61,275.55Z" style="fill: #fff"/>
        <path d="M67.17,283.68V271.43h1v4.66A3.73,3.73,0,0,1,71,274.63a3.07,3.07,0,0,1,2.69,1.26,3.35,3.35,0,0,1,.44,2v5.77h-1v-5.75c0-1.58-.65-2.38-2.28-2.38a2.57,2.57,0,0,0-2.45,1.72,4.55,4.55,0,0,0-.22,1.67v4.75Z" style="fill: #fff"/>
        <path d="M83.44,271.43h1v12.25h-1v-1.55h0a3.55,3.55,0,0,1-3.06,1.79c-2.84,0-4-2-4-4.63s1.24-4.66,3.93-4.66a3.67,3.67,0,0,1,3.15,1.65Zm-3,4.12c-2.11,0-3.1,1.79-3,4s1.29,3.45,3,3.45c1.92,0,3-1.63,3-3.76S82.32,275.55,80.46,275.55Z" style="fill: #fff"/>
        <path d="M91.08,278.54a5.11,5.11,0,0,0,1.34-.29c.34-.15.38-.61.38-.92,0-1-.61-1.79-2.2-1.79-1.41,0-2.38.46-2.57,2H87c.15-2.08,1.7-2.91,3.62-2.91s3.2.7,3.2,2.74v4.8c0,.8.2,1,1.07.68v.8a2.84,2.84,0,0,1-.8.17,2,2,0,0,1-.46-.05c-.68-.1-.8-.7-.82-1.31a4.33,4.33,0,0,1-3.28,1.46c-1.55,0-2.94-.83-2.94-2.54,0-1.48,1-2.38,3.08-2.65Zm1.72.51a8.37,8.37,0,0,1-2.64.49c-1.55.12-2.48.68-2.48,1.87s.94,1.58,1.91,1.58c1.62,0,3.22-.78,3.22-2.57Z" style="fill: #fff"/>
        <path d="M103.29,271.43h1v12.25h-1v-1.55h0a3.55,3.55,0,0,1-3.06,1.79c-2.84,0-4-2-4-4.63s1.24-4.66,3.93-4.66a3.66,3.66,0,0,1,3.15,1.65Zm-3,4.12c-2.11,0-3.1,1.79-3,4s1.29,3.45,3,3.45c1.92,0,3-1.63,3-3.76S102.17,275.55,100.32,275.55Z" style="fill: #fff"/>
      </g>
      <g>
        <path d="M45.17,242.85c4.29,0,6.72,2.39,6.72,5.81a4.9,4.9,0,0,1-3.2,4.73,5.21,5.21,0,0,1,3.89,5.22c0,3.58-2.67,6.07-6.81,6.07H35.92V242.85Zm-.65,9c2,0,3.14-1.09,3.14-2.77s-1.09-2.6-3.17-2.6H40.15v5.37Zm.44,9.27c2.08,0,3.33-1,3.33-2.77s-1.12-3-3.27-3H40.15v5.73Z" style="fill: #fff"/>
        <path d="M75.21,264.68H71.07V242.87h4.14v7.79A5.47,5.47,0,0,1,79.35,249C83.23,249,85,251.68,85,255v9.64H80.9v-8.93c0-1.71-.84-3-2.83-3a2.86,2.86,0,0,0-2.86,3Z" style="fill: #fff"/>
        <path d="M107.38,264.68h-4.14v-15.3h4v1.9a5.08,5.08,0,0,1,4.42-2.3c3.79,0,5.54,2.71,5.54,6.06v9.64h-4.14v-8.93c0-1.71-.84-3-2.83-3a2.88,2.88,0,0,0-2.86,3.17Z" style="fill: #fff"/>
        <path d="M146.35,260a3.27,3.27,0,0,1-3.07,1.68,3.57,3.57,0,0,1-3.64-3.53h11.06c0-.09,0-.4,0-1,0-4.76-2.81-8.22-7.76-8.22a7.68,7.68,0,0,0-7.53,8.05c0,5.16,3.61,8.18,7.81,8.18a7.29,7.29,0,0,0,7.19-4.65c.06-.17.12-.35.17-.53ZM143,252.28a3,3,0,0,1,3.29,3h-6.62A3.22,3.22,0,0,1,143,252.28Z" style="fill: #fff"/>
        <path d="M130.49,258.78h0a3.56,3.56,0,0,1-3.43,2.8c-2.11,0-3.92-1.77-3.92-4.54s1.77-4.56,3.89-4.56a3.16,3.16,0,0,1,3.22,2.36h4a4.26,4.26,0,0,0-.09-.76c-.71-2.8-3-5.16-7.18-5.16A7.83,7.83,0,0,0,119,257a7.92,7.92,0,0,0,8.05,8.12,7.1,7.1,0,0,0,7.15-5.16c.1-.38.19-.81.26-1.21Z" style="fill: #fff"/>
        <path d="M91.5,255.88l4.25-.56a1.19,1.19,0,0,0,1.15-1.22c0-1.09-1-2.08-2.71-2.08s-2.89,1-2.89,2.17H87.23V254c.25-2.39,2.29-5,6.91-5,4.85,0,6.79,2.6,6.79,5.68v7.66a5,5,0,0,0,.5,2.43H97.51a5.18,5.18,0,0,1-.33-1.83,6.07,6.07,0,0,1-5,2.27c-3.27,0-5.26-2.21-5.26-4.6C86.93,257.59,88.95,256.26,91.5,255.88Zm5.4,2.61v-.9s-.23.25-1.36.43c-.35.06-2.57.32-2.57.32a1.93,1.93,0,0,0-1.9,1.93,1.8,1.8,0,0,0,2,1.77C94.8,262,96.9,261.2,96.9,258.5Z" style="fill: #fff"/>
        <rect x="56.28" y="244.13" width="10.62" height="2.61" style="fill: #fff"/>
        <path d="M64.88,260a3.27,3.27,0,0,1-3.07,1.68,3.57,3.57,0,0,1-3.64-3.53H69.24c0-.09,0-.4,0-1,0-4.76-2.81-8.22-7.76-8.22A7.68,7.68,0,0,0,54,257c0,5.16,3.61,8.18,7.81,8.18A7.29,7.29,0,0,0,69,260.5c.06-.17.12-.35.17-.53Zm-3.32-7.69a3,3,0,0,1,3.29,3H58.22A3.22,3.22,0,0,1,61.56,252.28Z" style="fill: #fff"/>
      </g>
    </g>
  </g>
</svg>
