<svg xmlns="http://www.w3.org/2000/svg" width="161.82" height="21" viewBox="0 0 161.82 21">
  <title>hashtag</title>
  <g id="16cf80cf-9713-459a-93d8-4a15e9e1c10a" data-name="Layer 2">
    <g id="62b65d6e-f3ed-4f29-9ba1-5ee448c7723f" data-name="Layer 1">
      <g>
        <path d="M15.5,15.64a.28.28,0,0,1,0,.14v2.1a.27.27,0,0,1,0,.14.18.18,0,0,1-.17.07H13v3.74H6.72a5,5,0,0,1-3.91-1.39A5,5,0,0,1,1.58,17V12.86H4.51V16.5q0,2.83,3.09,2.83h2.46V2H13V15.57h2.33A.18.18,0,0,1,15.5,15.64Z" transform="translate(-1.58 -2.01)" style="fill: #f1f2f2"/>
        <path d="M22.09,14.71a2.34,2.34,0,0,0,1,.68,6.71,6.71,0,0,0,1.81.18.18.18,0,0,1,.17.07.29.29,0,0,1,0,.14v2.1a.28.28,0,0,1,0,.14.18.18,0,0,1-.17.07,5.64,5.64,0,0,1-2.12-.37,4.09,4.09,0,0,1-1.51-1.23,3.79,3.79,0,0,1-1.38,1.18,4,4,0,0,1-1.84.42H15.33a.18.18,0,0,1-.17-.07.27.27,0,0,1,0-.14v-2.1a.28.28,0,0,1,0-.14.18.18,0,0,1,.17-.07h1.89a1.87,1.87,0,0,0,1.44-.66,2.51,2.51,0,0,0,.6-1.75V7.46H22.2v6.15A6,6,0,0,1,22.09,14.71ZM16.4,22.59V19.94h3v2.65Zm4.2,0V19.94h3v2.65Z" transform="translate(-1.58 -2.01)" style="fill: #f1f2f2"/>
        <path d="M33.38,8.16a5,5,0,0,1,2,1.92,5.35,5.35,0,0,1,.71,2.74A5.74,5.74,0,0,1,35.72,15a2.66,2.66,0,0,0,1.89.61.18.18,0,0,1,.17.07.28.28,0,0,1,0,.14v2.1a.27.27,0,0,1,0,.14.18.18,0,0,1-.17.07,4,4,0,0,1-1.54-.35,4.27,4.27,0,0,1-1.48-1A5,5,0,0,1,31,18.09h-6a.18.18,0,0,1-.17-.07.27.27,0,0,1,0-.14v-2.1a.28.28,0,0,1,0-.14.18.18,0,0,1,.17-.07h1.26V7.88a29.83,29.83,0,0,1,4.18-.42A6.23,6.23,0,0,1,33.38,8.16Zm-4.23,2v5.44h1.34a2.44,2.44,0,0,0,1.9-.72,2.83,2.83,0,0,0,.66-2q0-2.88-2.56-2.88A6.5,6.5,0,0,0,29.15,10.13Z" transform="translate(-1.58 -2.01)" style="fill: #f1f2f2"/>
        <path d="M46.13,8.44a5.48,5.48,0,0,1,2.13,2.66L49.39,14a2.57,2.57,0,0,0,2.39,1.58l-1.13,2.52A3.91,3.91,0,0,1,49,17.67a4.94,4.94,0,0,1-1.53-1.09,12.14,12.14,0,0,1-3.08,1.12,15,15,0,0,1-3.31.39H37.61a.18.18,0,0,1-.17-.07.27.27,0,0,1,0-.14v-2.1a.28.28,0,0,1,0-.14.18.18,0,0,1,.17-.07h3.51A23.39,23.39,0,0,0,44,15.41a10.75,10.75,0,0,0,2.53-.64l-1-2.33a3.33,3.33,0,0,0-1.28-1.58,3.71,3.71,0,0,0-2.06-.56,5.51,5.51,0,0,0-2.42.52L38.72,8.43a8.27,8.27,0,0,1,3.93-1A6.17,6.17,0,0,1,46.13,8.44ZM41.37,22.59V19.94h3v2.65Z" transform="translate(-1.58 -2.01)" style="fill: #f1f2f2"/>
        <path d="M62.91,19.33v1H52.42v-1Z" transform="translate(-1.58 -2.01)" style="fill: #f1f2f2"/>
        <path d="M84.4,7.88V18.09H69.63a5,5,0,0,1-3.91-1.4,5.07,5.07,0,0,1-1.24-3.5V11h2.94v1.7q0,2.84,3.09,2.83h5.33a3.72,3.72,0,0,1-1.34-3.09,4.52,4.52,0,0,1,.75-2.5,5.3,5.3,0,0,1,2.06-1.84,6.25,6.25,0,0,1,2.93-.68A29.05,29.05,0,0,1,84.4,7.88Zm-6.83,5a2.53,2.53,0,0,0,.82,2,3,3,0,0,0,2.1.75h1V10.13A6.85,6.85,0,0,0,80.13,10Q77.57,10,77.57,12.86Zm1.07-7V3.24h3V5.89Z" transform="translate(-1.58 -2.01)" style="fill: #f1f2f2"/>
        <path d="M92.73,15.66a.32.32,0,0,1,0,.13v2.1a.27.27,0,0,1,0,.14.18.18,0,0,1-.17.07,4.14,4.14,0,0,1-2.12-.65v0a5.54,5.54,0,0,1-1.27,4A5.3,5.3,0,0,1,85.89,23l-1.18-2.62a6.65,6.65,0,0,0,1.62-.4,1.73,1.73,0,0,0,.88-.83,3.61,3.61,0,0,0,.29-1.61V7.68h2.94v7a2.47,2.47,0,0,0,2.12.9A.17.17,0,0,1,92.73,15.66Z" transform="translate(-1.58 -2.01)" style="fill: #f1f2f2"/>
        <path d="M102.08,7.67a5.67,5.67,0,0,1,2.11,1.63,3.39,3.39,0,0,1,.79,2.12,4.29,4.29,0,0,1-.59,2.09,6.69,6.69,0,0,1-1.6,1.9,17.56,17.56,0,0,0,2.75.17c.18,0,.27.08.27.23v2.06c0,.15-.09.23-.27.23a20.67,20.67,0,0,1-5.94-.78,28.68,28.68,0,0,1-7,.78.2.2,0,0,1-.23-.23V15.8a.2.2,0,0,1,.23-.23,23,23,0,0,0,3.59-.21,32.22,32.22,0,0,1-2.9-4.2l.65-2.73a23.83,23.83,0,0,1,2.83-1A9,9,0,0,1,99.24,7,6.6,6.6,0,0,1,102.08,7.67ZM96,10.7A16.08,16.08,0,0,0,97.46,13a14.87,14.87,0,0,0,1.85,2.07,6.77,6.77,0,0,0,1.92-1.39,2.55,2.55,0,0,0,.81-1.78,1.71,1.71,0,0,0-.86-1.5,3.79,3.79,0,0,0-2.1-.56A7.89,7.89,0,0,0,96,10.7Z" transform="translate(-1.58 -2.01)" style="fill: #f1f2f2"/>
        <path d="M105.61,18.09a.18.18,0,0,1-.17-.07.27.27,0,0,1,0-.14v-2.1a.28.28,0,0,1,0-.14.18.18,0,0,1,.17-.07h2.1V7.68h2.92V18.09Zm2-12.2V3.24h3V5.89Z" transform="translate(-1.58 -2.01)" style="fill: #f1f2f2"/>
        <path d="M122.49,19.33v1H112v-1Z" transform="translate(-1.58 -2.01)" style="fill: #f1f2f2"/>
        <path d="M138,15.64a.28.28,0,0,1,0,.14v2.1a.27.27,0,0,1,0,.14.18.18,0,0,1-.17.07h-2.33v3.74h-6.28a5,5,0,0,1-3.91-1.39A5,5,0,0,1,124.07,17V12.86H127V16.5q0,2.83,3.09,2.83h2.46V2h2.94V15.57h2.33A.18.18,0,0,1,138,15.64Z" transform="translate(-1.58 -2.01)" style="fill: #f1f2f2"/>
        <path d="M146.34,8.44a5.48,5.48,0,0,1,2.13,2.66L149.6,14A2.57,2.57,0,0,0,152,15.57l-1.13,2.52a3.91,3.91,0,0,1-1.62-.42,4.94,4.94,0,0,1-1.53-1.09,12.14,12.14,0,0,1-3.08,1.12,15,15,0,0,1-3.31.39h-3.51a.18.18,0,0,1-.17-.07.27.27,0,0,1,0-.14v-2.1a.28.28,0,0,1,0-.14.18.18,0,0,1,.17-.07h3.51a23.39,23.39,0,0,0,2.87-.16,10.75,10.75,0,0,0,2.53-.64l-1-2.33a3.33,3.33,0,0,0-1.28-1.58,3.71,3.71,0,0,0-2.06-.56,5.51,5.51,0,0,0-2.42.52l-1.07-2.39a8.27,8.27,0,0,1,3.93-1A6.17,6.17,0,0,1,146.34,8.44ZM141.5,5.89V3.24h3V5.89Z" transform="translate(-1.58 -2.01)" style="fill: #f1f2f2"/>
        <path d="M154.56,17.76,155.1,14h-1.7V12.07h2l.34-2.35H154v-2h2.08l.52-3.65h1.87l-.53,3.65h1.91l.55-3.65h1.87l-.55,3.65h1.68v2h-2l-.34,2.35h1.74V14h-2.06l-.52,3.76h-1.89l.53-3.76H157l-.53,3.76Zm4.66-5.69.34-2.35h-1.91l-.34,2.35Z" transform="translate(-1.58 -2.01)" style="fill: #f1f2f2"/>
      </g>
    </g>
  </g>
</svg>
