<svg xmlns="http://www.w3.org/2000/svg" width="294.84" height="160.51" viewBox="0 0 294.84 160.51">
  <title>jameel</title>
  <g id="255c5a77-b0bc-4064-9cf6-c60326492b7f" data-name="Layer 2">
    <g id="767986be-988e-4a79-bf26-62f175c4263b" data-name="Layer 1">
      <g>
        <path d="M163.5,18.5V40.82H131.8a13.14,13.14,0,0,1-5.8-1.21,8.77,8.77,0,0,1-3.81-3.44,9.8,9.8,0,0,1-1.33-5.12V24.9H125v5.78a6.06,6.06,0,0,0,1.9,4.6q1.89,1.8,5.78,1.8H147.2a8.34,8.34,0,0,1-3-3.36,10.66,10.66,0,0,1-1-4.74,11.39,11.39,0,0,1,5.69-9.88,12.37,12.37,0,0,1,6.44-1.63A45.79,45.79,0,0,1,163.5,18.5Zm-14,5a8.74,8.74,0,0,0-2,5.95,8.12,8.12,0,0,0,.88,3.72A6.86,6.86,0,0,0,150.92,36a7.66,7.66,0,0,0,4,1.09h4.5V21.77a18.48,18.48,0,0,0-4.26-.57A7,7,0,0,0,149.52,23.55Zm2-10.26V8.5H156v4.79Z" transform="translate(-5.73 -4.52)" style="fill: #f1f2f2"/>
        <path d="M181.27,37.24a.63.63,0,0,1,.09.31v2.8a.63.63,0,0,1-.09.31.4.4,0,0,1-.38.17,7.7,7.7,0,0,1-5.45-2.18v2.08q0,9.43-9,11.18l-1.66-3.74a8,8,0,0,0,5-2.08q1.56-1.66,1.56-5.16v-23h4.12V33.57a7.23,7.23,0,0,0,2.11,2.58,5.51,5.51,0,0,0,3.34.92A.4.4,0,0,1,181.27,37.24Z" transform="translate(-5.73 -4.52)" style="fill: #f1f2f2"/>
        <path d="M201.86,17.84a11.43,11.43,0,0,1,4.43,3.51A7.68,7.68,0,0,1,207.9,26,10.14,10.14,0,0,1,206,31.7,17.82,17.82,0,0,1,201,36.55a61.94,61.94,0,0,0,8.86.52c.41,0,.62.17.62.52v2.7c0,.35-.21.52-.62.52a43,43,0,0,1-13-1.85q-5.88,1.85-15.92,1.85a.46.46,0,0,1-.52-.52V37.6a.46.46,0,0,1,.52-.52,67.47,67.47,0,0,0,10.47-.57,62.55,62.55,0,0,1-8.81-11.89l1.14-4.5a24.56,24.56,0,0,1,11.94-3.6A14.35,14.35,0,0,1,201.86,17.84Zm-15.52,5.59a48.31,48.31,0,0,0,4.48,6.92A30.3,30.3,0,0,0,196.05,36a19.58,19.58,0,0,0,5.4-4.17,7.72,7.72,0,0,0,2.27-5.21,4.93,4.93,0,0,0-2.51-4.5,11.25,11.25,0,0,0-5.92-1.52A18.69,18.69,0,0,0,186.34,23.43Z" transform="translate(-5.73 -4.52)" style="fill: #f1f2f2"/>
        <path d="M210,40.82a.38.38,0,0,1-.38-.19.72.72,0,0,1-.09-.28v-2.8a.63.63,0,0,1,.09-.31.4.4,0,0,1,.38-.17h6V17.93h4.12V40.82Zm5.78-27.53V8.5h4.45v4.79Z" transform="translate(-5.73 -4.52)" style="fill: #f1f2f2"/>
        <path d="M269,37.24a.64.64,0,0,1,.09.31v2.8a.64.64,0,0,1-.09.31.4.4,0,0,1-.38.17h-6.44v8.43H249.78a11.43,11.43,0,0,1-8-2.65,9.11,9.11,0,0,1-2.94-7.11V29H243V39.16a6.06,6.06,0,0,0,1.9,4.6q1.89,1.8,5.73,1.8h7.44v-41h4.12V37.07h6.44A.4.4,0,0,1,269,37.24Z" transform="translate(-5.73 -4.52)" style="fill: #f1f2f2"/>
        <path d="M287.49,20.06A16.93,16.93,0,0,1,292.18,27l2.61,6.54q1.28,3.27,5.78,3.65L299,40.82a9,9,0,0,1-6.59-3.36,29.52,29.52,0,0,1-6.94,2.49,32.86,32.86,0,0,1-7.37.88h-9.43a.38.38,0,0,1-.38-.19.72.72,0,0,1-.09-.28v-2.8a.63.63,0,0,1,.09-.31.4.4,0,0,1,.38-.17h9.43a35.44,35.44,0,0,0,12.84-2.23l-.14-.33-2.65-6.44a11.73,11.73,0,0,0-3.58-5A9,9,0,0,0,279,21.49,11.8,11.8,0,0,0,273.33,23l-1.61-3.46a24,24,0,0,1,4-1.59,16.05,16.05,0,0,1,4.29-.5A11.09,11.09,0,0,1,287.49,20.06Zm-9.38-6.78V8.5h4.45v4.79Z" transform="translate(-5.73 -4.52)" style="fill: #f1f2f2"/>
        <path d="M5.73,139.67V121.92H21.5v17.75Z" transform="translate(-5.73 -4.52)" style="fill: #f1f2f2"/>
        <path d="M108.49,128.59a1.47,1.47,0,0,1,.22.72v11a1.47,1.47,0,0,1-.22.72.93.93,0,0,1-.88.39H95.37v19.63h-33q-14,0-20.51-7.28t-6.5-18.3V114H50.83v19.07q0,14.89,16.21,14.89h12.9V57H95.37v71.23h12.24A.93.93,0,0,1,108.49,128.59Z" transform="translate(-5.73 -4.52)" style="fill: #f1f2f2"/>
        <path d="M143.11,123.69a12.25,12.25,0,0,0,5.51,3.58,35.23,35.23,0,0,0,9.48.94.93.93,0,0,1,.88.39,1.47,1.47,0,0,1,.22.72v11a1.47,1.47,0,0,1-.22.72.93.93,0,0,1-.88.39A29.59,29.59,0,0,1,147,139.51a21.45,21.45,0,0,1-7.94-6.45,19.86,19.86,0,0,1-7.22,6.17,21.07,21.07,0,0,1-9.65,2.21H107.61a.93.93,0,0,1-.88-.39,1.47,1.47,0,0,1-.22-.72v-11a1.47,1.47,0,0,1,.22-.72.93.93,0,0,1,.88-.39h9.92a9.83,9.83,0,0,0,7.55-3.47,13.19,13.19,0,0,0,3.14-9.21V85.65h15.44V118A31.52,31.52,0,0,1,143.11,123.69ZM113.23,165V151.14h15.88V165Zm22.05,0V151.14h15.88V165Z" transform="translate(-5.73 -4.52)" style="fill: #f1f2f2"/>
        <path d="M202.38,89.28a26.27,26.27,0,0,1,10.53,10.09,28.12,28.12,0,0,1,3.75,14.39,30.07,30.07,0,0,1-2,11.25q3.42,3.2,9.92,3.2a.93.93,0,0,1,.88.39,1.48,1.48,0,0,1,.22.72v11a1.48,1.48,0,0,1-.22.72.93.93,0,0,1-.88.39,21.13,21.13,0,0,1-8.1-1.82,22.48,22.48,0,0,1-7.77-5.46,26.22,26.22,0,0,1-18.85,7.28H158.11a.93.93,0,0,1-.88-.39,1.47,1.47,0,0,1-.22-.72v-11a1.47,1.47,0,0,1,.22-.72.93.93,0,0,1,.88-.39h6.62V87.85a156.12,156.12,0,0,1,21.94-2.21A32.73,32.73,0,0,1,202.38,89.28ZM180.16,99.65v28.56h7.06q6.5,0,10-3.8T200.67,114q0-15.1-13.45-15.11A34.06,34.06,0,0,0,180.16,99.65Z" transform="translate(-5.73 -4.52)" style="fill: #f1f2f2"/>
        <path d="M269.3,90.77a28.72,28.72,0,0,1,11.19,13.95l6,15.22q2.76,7.28,12.57,8.27l-6,13.23a20.5,20.5,0,0,1-8.49-2.21,25.78,25.78,0,0,1-8-5.73,63.56,63.56,0,0,1-16.15,5.9,78.43,78.43,0,0,1-17.37,2H224.59a.93.93,0,0,1-.88-.39,1.47,1.47,0,0,1-.22-.72v-11a1.47,1.47,0,0,1,.22-.72.93.93,0,0,1,.88-.39H243a123.31,123.31,0,0,0,15-.83A56.36,56.36,0,0,0,271.34,124l-5.07-12.24a17.48,17.48,0,0,0-6.73-8.32,19.49,19.49,0,0,0-10.81-2.92,28.89,28.89,0,0,0-12.68,2.76l-5.62-12.57a43.46,43.46,0,0,1,20.62-5.07A32.38,32.38,0,0,1,269.3,90.77Zm-25,74.26V151.14h15.88V165Z" transform="translate(-5.73 -4.52)" style="fill: #f1f2f2"/>
      </g>
    </g>
  </g>
</svg>
