<?xml version="1.0" encoding="utf-8"?>
<!-- Generator: Adobe Illustrator 21.0.2, SVG Export Plug-In . SVG Version: 6.00 Build 0)  -->
<svg version="1.1" id="Layer_1" xmlns="http://www.w3.org/2000/svg" xmlns:xlink="http://www.w3.org/1999/xlink" x="0px" y="0px"
	 viewBox="0 0 156.2 60" style="enable-background:new 0 0 156.2 60;" xml:space="preserve">
<style type="text/css">
	.st0{fill:#0057FF;}
	.st1{fill:#002E5B;}
</style>
<title>Asset 2</title>
<g id="b575f64e-9a01-4568-aab4-1a0f4afb3b92">
	<g id="_x39_f5a09ab-4559-40ca-b008-c3af481fda90">
		<g>
			<path class="st0" d="M12.6,0c5.8,0,9.1,3.2,9.1,7.9c0.1,2.9-1.7,5.4-4.4,6.4c3.2,0.8,5.4,3.8,5.3,7.1c0,4.9-3.6,8.2-9.3,8.2H0V0
				H12.6z M11.7,12.2c2.7,0,4.3-1.5,4.3-3.8s-1.5-3.5-4.3-3.5H5.8v7.3L11.7,12.2z M12.3,24.8c2.8,0,4.5-1.4,4.5-3.8s-1.5-4-4.4-4
				H5.8v7.8L12.3,24.8z"/>
			<path class="st0" d="M53.4,29.7h-5.6V0h5.6v10.6c1.5-1.5,3.5-2.4,5.6-2.3c5.3,0,7.7,3.7,7.7,8.2v13.1h-5.6V17.5
				c0-2.3-1.1-4.1-3.8-4.1c-2.4,0-3.8,1.8-3.9,4.1V29.7z"/>
			<path class="st0" d="M97.2,29.7h-5.6V8.9H97v2.6c1.3-2,3.6-3.2,6-3.1c5.2,0,7.5,3.7,7.5,8.2v13.1h-5.6V17.5
				c0-2.3-1.1-4.1-3.8-4.1c-2.4,0-3.9,1.9-3.9,4.3V29.7z"/>
			<path class="st0" d="M150.2,23.3c-0.8,1.5-2.4,2.4-4.2,2.3c-2.7,0-4.9-2.1-4.9-4.8c0,0,0,0,0,0h15c0-0.1,0-0.5,0-1.4
				c0-6.5-3.8-11.2-10.6-11.2c-5.3,0-10.2,4.3-10.2,11c0,7,4.9,11.1,10.6,11.1c5,0,8.6-2.9,9.8-6.3c0.1-0.2,0.2-0.5,0.2-0.7
				L150.2,23.3z M145.6,12.8c3.2,0,4.4,2,4.5,4.1h-9C141.3,14.5,143.3,12.7,145.6,12.8z"/>
			<path class="st0" d="M128.6,21.6L128.6,21.6c-0.5,2.2-2.4,3.8-4.7,3.8c-2.9,0-5.3-2.4-5.3-6.2s2.4-6.2,5.3-6.2
				c2-0.1,3.9,1.2,4.4,3.2h5.4c0-0.3-0.1-0.7-0.1-1c-1-3.8-4.1-7-9.8-7c-5.9-0.1-10.7,4.6-10.8,10.5c0,0.2,0,0.3,0,0.5
				c-0.1,5.9,4.6,10.9,10.5,11c0.2,0,0.3,0,0.5,0c4.5,0.2,8.5-2.7,9.7-7c0.1-0.5,0.3-1.1,0.4-1.6H128.6z"/>
			<path class="st0" d="M75.6,17.7l5.8-0.7c0.9,0,1.6-0.8,1.6-1.7c0,0,0,0,0,0c0-1.5-1.3-2.8-3.7-2.8s-3.9,1.3-3.9,2.9h-5.5v-0.3
				c0.3-3.3,3.1-6.9,9.4-6.9c6.6,0,9.2,3.5,9.2,7.7v10.4c-0.1,1.1,0.2,2.3,0.7,3.3h-5.3c-0.3-0.8-0.5-1.6-0.4-2.5
				c-1.1,1.6-3.7,3.1-6.8,3.1c-4.4,0-7.2-3-7.2-6.3C69.3,20,72.1,18.2,75.6,17.7z M82.9,21.3V20c0,0-0.3,0.3-1.9,0.6
				c-0.5,0.1-3.5,0.4-3.5,0.4c-1.4,0-2.6,1.2-2.6,2.7c0,1.3,1.1,2.4,2.5,2.4c0.1,0,0.2,0,0.3,0C80,26.1,82.9,25,82.9,21.3z"/>
			<rect x="27.7" y="1.7" class="st0" width="14.4" height="3.5"/>
			<path class="st0" d="M39.4,23.3c-0.8,1.5-2.5,2.4-4.2,2.3c-2.7,0-4.9-2.1-4.9-4.8c0,0,0,0,0,0h15c0-0.1,0-0.5,0-1.4
				c0-6.5-3.8-11.2-10.5-11.2c-5.3,0-10.2,4.3-10.2,11c0,7,4.9,11.1,10.6,11.1c5,0,8.6-2.9,9.8-6.3c0.1-0.2,0.2-0.5,0.2-0.7
				L39.4,23.3z M34.9,12.8c3.2,0,4.4,2,4.5,4.1h-9C30.5,14.5,32.5,12.7,34.9,12.8z"/>
		</g>
		<g>
			<path class="st1" d="M2.3,59.7H0V43h7.5c3.1,0,5,2,5,4.7c0.2,2.6-1.7,4.8-4.3,5c-0.2,0-0.5,0-0.7,0H2.3V59.7z M2.3,50.7h4.5
				c2,0,3.4-0.8,3.4-3s-1.4-2.8-3.3-2.8H2.3V50.7z"/>
			<path class="st1" d="M18.8,47.2c3.9,0,5.7,3.3,5.7,6.4S22.7,60,18.8,60s-5.7-3.3-5.7-6.4S14.9,47.2,18.8,47.2z M18.8,58.2
				c2.9,0,3.5-3,3.5-4.7s-0.6-4.7-3.5-4.7s-3.5,3-3.5,4.7S15.9,58.2,18.8,58.2z"/>
			<path class="st1" d="M29.1,59.7h-2V47.5H29v2l0,0c0.6-1.4,1.9-2.3,3.4-2.4c0.2,0,0.4,0,0.5,0.1v2.1h-0.8c-1.7,0-3.1,1.4-3.1,3.1
				c0,0.1,0,0.1,0,0.2L29.1,59.7z"/>
			<path class="st1" d="M38,49.2v7.9c0,1,0.8,1,1.2,1H40v1.6c-0.8,0.1-1.3,0.2-1.5,0.2c-2,0-2.5-1.1-2.5-2.6v-8h-1.7v-1.8H36v-3.4h2
				v3.4h2v1.7H38z"/>
			<path class="st1" d="M44.5,49.2v10.5h-2V49.2h-1.7v-1.7h1.7v-2.1c0-1.8,1.2-2.7,3.2-2.7c0.3,0,0.6,0,0.9,0v1.8
				c-0.3,0-0.6,0-0.8,0c-0.9,0-1.2,0.4-1.2,1.4v1.5h2v1.7H44.5z"/>
			<path class="st1" d="M52.7,47.2c3.9,0,5.7,3.3,5.7,6.4S56.6,60,52.7,60S47,56.7,47,53.6S48.8,47.2,52.7,47.2z M52.7,58.2
				c2.9,0,3.5-3,3.5-4.7s-0.6-4.7-3.5-4.7s-3.5,3-3.5,4.7S49.8,58.2,52.7,58.2z"/>
			<path class="st1" d="M62.8,59.7h-2V43h2V59.7z"/>
			<path class="st1" d="M65.9,45.3V43h2v2.3L65.9,45.3z M67.9,59.7h-2V47.5h2V59.7z"/>
			<path class="st1" d="M76,47.2c3.9,0,5.7,3.3,5.7,6.4S79.9,60,76,60s-5.7-3.3-5.7-6.4S72.1,47.2,76,47.2z M76,58.2
				c2.9,0,3.5-3,3.5-4.7s-0.6-4.7-3.5-4.7s-3.5,3-3.5,4.7S73,58.2,76,58.2z"/>
			<path class="st1" d="M92.8,59.7h-2V47.5h1.9v2l0,0c0.6-1.4,1.9-2.3,3.4-2.4c0.2,0,0.4,0,0.5,0.1v2.1h-0.8c-1.7,0-3.1,1.4-3.1,3.1
				c0,0.1,0,0.1,0,0.2V59.7z"/>
			<path class="st1" d="M108,55.9c-0.5,2.6-2.8,4.4-5.5,4.1c-3.4,0-5.4-2.6-5.4-6.1c0-3.8,1.8-6.8,5.8-6.8c3.5,0,5.2,2.8,5.2,7.1
				h-8.9c0,2.5,1.2,4,3.5,4c1.5,0.1,2.8-0.9,3.1-2.4L108,55.9z M106,52.6c-0.1-1.9-0.9-3.6-3.4-3.6c-1.9,0.1-3.4,1.7-3.4,3.6H106z"
				/>
			<path class="st1" d="M117.7,47.5h2.2l-4.6,12.2h-2.2l-4.5-12.2h2.4l3.2,9.9l0,0L117.7,47.5z"/>
			<path class="st1" d="M121.7,45.3V43h2v2.3L121.7,45.3z M123.7,59.7h-2V47.5h2V59.7z"/>
			<path class="st1" d="M137.1,55.9c-0.5,2.6-2.8,4.4-5.5,4.1c-3.4,0-5.5-2.6-5.5-6.1c0-3.8,1.8-6.8,5.8-6.8c3.5,0,5.2,2.8,5.2,7.1
				h-8.9c0,2.5,1.2,4,3.5,4c1.5,0.1,2.8-0.9,3.1-2.4L137.1,55.9z M135.1,52.6c-0.1-1.9-0.9-3.6-3.4-3.6c-1.9,0.1-3.4,1.7-3.4,3.6
				H135.1z"/>
			<path class="st1" d="M143.7,59.7h-2.1l-3.5-12.2h2.2l2.3,9.6l0,0l2.4-9.6h2.3l2.4,9.6l0,0l2.5-9.6h2l-3.5,12.2h-2.1l-2.5-9.4l0,0
				L143.7,59.7z"/>
		</g>
	</g>
</g>
</svg>
