<svg xmlns="http://www.w3.org/2000/svg" width="24.62" height="25.2" viewBox="0 0 24.62 25.2">
  <title>reload</title>
  <g id="f653526f-ac53-4514-bd92-9f613212b428" data-name="Layer 2">
    <g id="2ef56c9d-d555-424e-b26d-6c0cb6870b0d" data-name="Layer 1">
      <path d="M12.14,25.2l-.12,0a12.34,12.34,0,0,1-7.51-2.86A12.16,12.16,0,0,1,.32,15.62,10.9,10.9,0,0,1,0,13.73c0-.32,0-.64,0-1A12.42,12.42,0,0,1,1.24,7.45,12.64,12.64,0,0,1,8.48,1a12.37,12.37,0,0,1,4.6-.66,12.23,12.23,0,0,1,4.09.9A12.56,12.56,0,0,1,20.41,3.2l.1.07L24.62,0V11.61L12.82,9.42s0-.06.07-.08l2-1.57L16.8,6.23l.08-.07-.09-.07a7.75,7.75,0,0,0-3-1.19A7.87,7.87,0,0,0,5,10.35a8.12,8.12,0,0,0-.37,2.93,7.83,7.83,0,0,0,5,6.9,7.74,7.74,0,0,0,2.09.51,7.86,7.86,0,0,0,5.18-1.23,7.7,7.7,0,0,0,2.88-3.38l.05-.11,4.47,1.09,0,.13A12.51,12.51,0,0,1,14.91,25a12.05,12.05,0,0,1-1.95.22l-.12,0Z" style="fill: #0057ff"/>
    </g>
  </g>
</svg>
