<svg xmlns="http://www.w3.org/2000/svg" width="116.51" height="19.51" viewBox="0 0 116.51 19.51">
  <title>solo</title>
  <g id="612a92a0-b3f5-4b26-adf0-69b83aec4855" data-name="Layer 2">
    <g id="fa242c2d-dbb7-48fb-b9c7-346c9526ae6f" data-name="Layer 1">
      <path d="M0,10c0-.3.07-.6.1-.9A10.1,10.1,0,0,1,1.93,4.5c.27-.38.55-.76.84-1.15A7.07,7.07,0,0,0,.86,1.49C.64,1.35.4,1.22.18,1.08A.27.27,0,0,1,.07.9c0-.19,0-.38,0-.59H7.68c.16,0,.19,0,.22.21.06.41-.1.61-.48.77A10.67,10.67,0,0,0,4.63,2.84,10,10,0,0,0,1.07,8.31a7.4,7.4,0,0,0,.09,4.08,3.77,3.77,0,0,0,1.21,1.83,2.47,2.47,0,0,0,3.35-.15A6.3,6.3,0,0,0,7.07,12a24,24,0,0,0,1.2-3.7,20.91,20.91,0,0,1,1.5-4.19,8.05,8.05,0,0,1,2.29-2.89A5.78,5.78,0,0,1,16.1.1a6.61,6.61,0,0,1,5.35,3.5,8.82,8.82,0,0,1,1.16,5.31,10.19,10.19,0,0,1-1.84,5c-.15.23-.3.45-.47.67a.18.18,0,0,0,0,.26,6.11,6.11,0,0,0,2,1.73.55.55,0,0,1,.36.65,1.82,1.82,0,0,0,0,.29l-7.29.36c0-.23,0-.44,0-.65,0,0,.08-.1.13-.13.69-.39,1.4-.74,2.06-1.17a9.24,9.24,0,0,0,4.2-6.14,7.26,7.26,0,0,0-.27-4.07,3.5,3.5,0,0,0-.66-1.1,2.26,2.26,0,0,0-3.32-.14,5.54,5.54,0,0,0-1.21,1.84,27.28,27.28,0,0,0-1.24,3.67,30.58,30.58,0,0,1-1.53,4.39,10.06,10.06,0,0,1-1.84,2.82A5.78,5.78,0,0,1,7.28,19a6.63,6.63,0,0,1-6.08-3.7A9.73,9.73,0,0,1,0,11.35a1.69,1.69,0,0,0,0-.18Q0,10.61,0,10Z"/>
      <path d="M34.89,19.51,34,19.41a8.53,8.53,0,0,1-7.46-6.29,10.89,10.89,0,0,1,.81-8.61A8.29,8.29,0,0,1,33.55.15c.37-.06.75-.1,1.13-.15h1.23c.33,0,.66.06,1,.11a8.81,8.81,0,0,1,6.56,4.08,9.35,9.35,0,0,1,1.34,4,12,12,0,0,1-.56,5.5,8.32,8.32,0,0,1-6.68,5.68c-.4.08-.81.1-1.22.15l-.18,0ZM39,9.43c0-1.29-.06-3-.12-4.63a6.83,6.83,0,0,0-.46-2.26A2.73,2.73,0,0,0,36.7.81a3.79,3.79,0,0,0-2.49,0A2.78,2.78,0,0,0,32.5,2.66,8.92,8.92,0,0,0,32,5.47Q32,7.38,32,9.28c0,1.79,0,3.58.08,5.36A7.11,7.11,0,0,0,32.5,17a2.7,2.7,0,0,0,1.79,1.79,4.06,4.06,0,0,0,1.47.15,2.8,2.8,0,0,0,2.74-2.16,8.75,8.75,0,0,0,.38-2.44C38.92,12.8,38.94,11.31,39,9.43Z"/>
      <path d="M78.09,19.51l-.9-.11a8.53,8.53,0,0,1-7.48-6.33,10.89,10.89,0,0,1,.82-8.55A8.29,8.29,0,0,1,76.77.14c.37-.06.74-.1,1.11-.14h1.27c.32,0,.65.06,1,.11A8.75,8.75,0,0,1,87,4.77a9.73,9.73,0,0,1,1.07,4,12,12,0,0,1-.55,4.74,8.37,8.37,0,0,1-7,5.9c-.38.06-.76.1-1.15.14Zm4-9.72h.06c0-1.57-.05-3.14-.1-4.71a7.83,7.83,0,0,0-.43-2.4A2.8,2.8,0,0,0,80.12.9a3.66,3.66,0,0,0-2.88,0A2.8,2.8,0,0,0,75.7,2.7a9.42,9.42,0,0,0-.46,3q0,3.25,0,6.51c0,1,.06,2,.14,3a5.54,5.54,0,0,0,.54,2.06,2.59,2.59,0,0,0,1.78,1.45,4.33,4.33,0,0,0,2,0,2.56,2.56,0,0,0,1.81-1.38,4.68,4.68,0,0,0,.3-.74,9.74,9.74,0,0,0,.39-2.81C82.14,12.51,82.12,11.15,82.12,9.79Z"/>
      <path d="M116.51,5.19c0,.16-.07.32-.11.47a2.22,2.22,0,0,1-4.31-.05,3.28,3.28,0,0,1,.14-2,2,2,0,0,1,1.85-1.29,2.14,2.14,0,0,1,2.39,2,.76.76,0,0,0,0,.12Zm-3.68-.41c0,.3.06.57.13.83a1.27,1.27,0,0,0,.67.92,1.32,1.32,0,0,0,1.9-.82,3.11,3.11,0,0,0,0-1.8,1.32,1.32,0,0,0-2.54,0A7.92,7.92,0,0,0,112.83,4.78Z"/>
      <path d="M107.88,2.75V.13h.81V7.25c-.17,0-.35,0-.52,0S108,7.12,108,7l-.06-.51-.21.23A1.83,1.83,0,0,1,106,7.3a1.46,1.46,0,0,1-1.14-.89,3.57,3.57,0,0,1,0-3.07,1.82,1.82,0,0,1,2.18-1A4.66,4.66,0,0,1,107.88,2.75Zm0,2c0-.35,0-.7,0-1.05a.46.46,0,0,0-.09-.26A1.26,1.26,0,0,0,106.54,3a1.18,1.18,0,0,0-1,.88,3.32,3.32,0,0,0,0,2,1,1,0,0,0,.9.76,1.46,1.46,0,0,0,1.4-.69.31.31,0,0,0,0-.17C107.89,5.41,107.89,5.06,107.89,4.71Z"/>
      <path d="M99.58,2.36h.82v.2q0,1.41,0,2.83a2.82,2.82,0,0,0,0,.36,1,1,0,0,0,1.22.88,1.69,1.69,0,0,0,1-.6.36.36,0,0,0,.05-.22q0-1.6,0-3.21V2.37h.81V7.25a3,3,0,0,1-.53,0c-.07,0-.15-.13-.17-.22a2.58,2.58,0,0,1-.06-.43l-.07-.06a.78.78,0,0,1-.11.19,1.91,1.91,0,0,1-1.33.61A1.48,1.48,0,0,1,99.61,6a2.24,2.24,0,0,1,0-.32q0-1.6,0-3.21A.85.85,0,0,1,99.58,2.36Z"/>
      <path d="M91.9,6.73c.26-.5.31-.59.8-.24a1.36,1.36,0,0,0,1.16.18.75.75,0,0,0,.56-.51.6.6,0,0,0-.27-.77,3.6,3.6,0,0,0-.54-.24c-.28-.11-.56-.19-.83-.31a1.15,1.15,0,0,1-.76-1,1.32,1.32,0,0,1,.58-1.3,2.13,2.13,0,0,1,2.46.18s0,.12,0,.18,0,0,0,0c-.2.35-.22.36-.57.17A1.45,1.45,0,0,0,93.35,3a1,1,0,0,0-.39.24.54.54,0,0,0,.09.86,3.21,3.21,0,0,0,.59.27c.25.1.51.17.76.28a1.33,1.33,0,0,1,.31,2.32A2.28,2.28,0,0,1,91.9,6.73Z"/>
      <path d="M98.85,6.88a1.6,1.6,0,0,1-1.72.33,1.09,1.09,0,0,1-.56-1.06c0-.94,0-1.89,0-2.83,0-.07,0-.14,0-.25h-.45c-.25,0-.3,0-.3-.29,0-.07,0-.14,0-.23l.58-.08c.14,0,.21,0,.22-.21,0-.42.11-.84.16-1.26,0-.18.1-.26.28-.24h.33V2.45h1.35v.62H97.4a.84.84,0,0,0,0,.1c0,1,0,1.92,0,2.88,0,.36.2.59.51.57a1.07,1.07,0,0,0,.45-.16c.15-.09.23-.07.3.08S98.78,6.76,98.85,6.88Z"/>
      <path d="M110.1,2.36h.8V7.25h-.8Z"/>
      <path d="M66.87,12l-.39,7.17H47.09v-.61h.24c.53,0,1.07,0,1.59-.06a1.44,1.44,0,0,0,1.39-1.52c0-.2,0-.41,0-.62q0-6.58,0-13.17a5.8,5.8,0,0,0-.06-.83A1.35,1.35,0,0,0,49,1.06C48.45,1,47.9,1,47.36,1H47.1V.34H58.82V1h-.23c-.4,0-.81,0-1.21.05A1.43,1.43,0,0,0,56,2.46a6.17,6.17,0,0,0,0,.65q0,6.9,0,13.8a4.75,4.75,0,0,0,.06.74.86.86,0,0,0,.67.73,3.29,3.29,0,0,0,.69.12,11.39,11.39,0,0,0,3-.14,6.53,6.53,0,0,0,3.55-2.17A11.7,11.7,0,0,0,66,12.7c.08-.21.16-.42.25-.62a.2.2,0,0,1,.13-.11C66.52,12,66.68,12,66.87,12Z"/>
    </g>
  </g>
</svg>
